<?xml version="1.0" standalone="no"?><!DOCTYPE svg PUBLIC "-//W3C//DTD SVG 1.1//EN" "http://www.w3.org/Graphics/SVG/1.1/DTD/svg11.dtd"><svg class="icon" width="200px" height="200.00px" viewBox="0 0 1024 1024" version="1.1" xmlns="http://www.w3.org/2000/svg"><path d="M341.27872 81.01888h24.59648a111.57504 111.57504 0 0 1 31.82592-51.63008 110.63296 110.63296 0 0 1 150.15936 0.02048 112.06656 112.06656 0 0 1 28.03712 40.50944 255.05792 255.05792 0 0 1 352.58368 8.47872 255.05792 255.05792 0 0 1-3.3792 364.66688V911.5648c0 61.82912-50.5856 112.4352-112.4352 112.4352H132.9152a112.0256 112.0256 0 0 1-79.42144-33.01376A112.08704 112.08704 0 0 1 20.48 911.5648V249.63072C20.48 187.8016 71.08608 137.216 132.9152 137.216h132.56704a79.54432 79.54432 0 0 1 19.88608-32.91136l-0.08192 0.06144a79.03232 79.03232 0 0 1 55.99232-23.3472z" fill="#595757" /><path d="M747.7248 48.80384a209.7152 209.7152 0 0 0-148.5824 61.72672 209.65376 209.65376 0 0 0 0 297.1648 209.65376 209.65376 0 0 0 148.5824 61.72672c115.8144 0 210.28864-94.47424 210.28864-210.28864 0-57.89696-23.61344-110.46912-61.72672-148.5824s-90.64448-61.7472-148.56192-61.7472z" fill="#FFDB00" /><path d="M497.4592 311.86944h-156.18048a79.0528 79.0528 0 0 1-55.9104-23.26528h-0.08192a79.09376 79.09376 0 0 1-23.2448-55.99232V182.70208H132.9152a67.13344 67.13344 0 0 0-66.92864 66.94912v661.9136c0 18.39104 7.51616 35.1232 19.6608 47.26784 12.14464 12.14464 28.8768 19.68128 47.26784 19.68128h679.75168a67.15392 67.15392 0 0 0 66.94912-66.94912V478.08512a253.89056 253.89056 0 0 1-131.8912 36.80256c-36.1472 0-70.57408-7.5776-101.80608-21.1968h-420.4544c-32.41984 0-32.50176-45.48608 0-45.48608h350.33088a255.5904 255.5904 0 0 1-78.336-136.33536z" fill="#FFFFFF" /><path d="M538.54208 112.2304l-0.55296-6.69696a65.37216 65.37216 0 0 0-65.18784-60.06784c-17.08032 0-32.68608 6.57408-44.3392 17.32608a65.26976 65.26976 0 0 0-20.86912 42.72128l-1.69984 20.95104h-64.59392c-9.3184 0-17.75616 3.7888-23.83872 9.85088l-0.08192 0.08192a33.66912 33.66912 0 0 0-9.85088 23.83872v72.31488c0 9.25696 3.80928 17.7152 9.9328 23.83872h-0.08192c6.10304 6.12352 14.60224 9.9328 23.92064 9.9328h150.77376a253.952 253.952 0 0 1 46.46912-154.09152z" fill="#FFFFFF" /><path d="M703.46752 119.1936c11.30496-0.8192 16.93696 7.63904 16.93696 25.3952v152.43264c-0.83968 8.86784-4.85376 14.15168-12.0832 15.74912-7.2704-0.8192-10.87488-5.632-10.87488-14.49984v-145.2032c0-7.22944-3.25632-10.89536-9.70752-10.89536h-35.10272c-9.64608 0.83968-14.49984 4.85376-14.49984 12.14464v139.12064c-0.77824 8.88832-4.85376 14.09024-12.0832 15.74912-7.2704-0.83968-10.89536-5.67296-10.89536-14.56128V143.40096c-1.59744-16.91648 7.63904-25.02656 27.81184-24.20736h60.49792z m-6.0416 205.68064c8.04864 7.2704 16.91648 17.34656 26.58304 30.24896l7.2704 7.2704c4.03456 6.4512 3.62496 12.0832-1.2288 16.93696-5.632 4.85376-10.83392 4.44416-15.68768-1.18784a264.704 264.704 0 0 0-25.3952-26.64448c-3.25632-3.19488-5.26336-6.0416-6.10304-8.45824-5.632-5.632-6.4512-11.30496-2.37568-16.93696 4.79232-4.85376 10.48576-5.26336 16.93696-1.2288z m-19.3536-147.59936c0.77824 12.0832 1.18784 31.8464 1.18784 59.24864-0.8192 41.984-4.44416 72.64256-10.89536 91.99616-7.22944 22.54848-20.13184 42.33216-38.7072 59.26912-7.22944 5.67296-13.68064 5.67296-19.3536 0-4.03456-5.632-2.43712-11.6736 4.85376-18.1248 30.65856-29.06112 44.7488-73.80992 42.33216-134.32832v-13.312-43.56096c-0.77824-8.04864 2.00704-12.4928 8.47872-13.27104 7.24992 0.77824 11.264 4.79232 12.10368 12.0832z m107.68384-56.89344c-1.65888 7.2704-2.84672 12.53376-3.66592 15.74912h82.28864c14.49984 0 22.20032 7.2704 22.97856 21.79072v90.74688c0 17.75616-0.77824 33.44384-2.43712 47.18592a506.88 506.88 0 0 1-3.62496 39.91552c-4.03456 44.40064-30.24896 62.50496-78.62272 54.45632-8.11008-1.59744-12.12416-6.8608-12.12416-15.74912 1.65888-8.04864 6.4512-11.6736 14.56128-10.89536 32.27648 6.4512 49.60256-3.19488 51.97824-29.02016 4.07552-15.33952 6.4512-43.56096 7.2704-84.72576V169.984c0-7.22944-3.60448-10.89536-10.89536-10.89536h-78.62272a628.8384 628.8384 0 0 1-25.43616 52.03968c-6.4512 8.86784-13.27104 12.12416-20.54144 9.70752-6.4512-4.85376-6.8608-11.71456-1.18784-20.60288 12.0832-17.7152 24.1664-46.36672 36.29056-85.9136 2.43712-8.04864 7.22944-11.24352 14.49984-9.64608 6.4512 2.43712 8.88832 7.65952 7.29088 15.70816z m22.95808 73.8304c-18.5344 48.41472-33.87392 81.87904-45.99808 100.41344 7.29088 0 21.79072-0.77824 43.56096-2.37568 6.4512 0 11.30496-0.4096 14.49984-1.24928a2503.2704 2503.2704 0 0 0-14.49984-37.4784c-3.19488-7.2704-1.18784-12.53376 6.0416-15.74912 7.2704-2.41664 12.4928-0.4096 15.74912 6.0416 1.59744 4.85376 3.19488 10.05568 4.85376 15.74912 8.88832 23.38816 15.33952 42.33216 19.3536 56.832 1.59744 8.88832-0.83968 14.56128-7.2704 16.93696-7.29088 0.8192-12.0832-2.78528-14.49984-10.83392-0.8192 0-2.00704-3.25632-3.66592-9.70752-12.9024 0.8192-28.59008 2.02752-47.18592 3.60448h-30.24896c-9.64608 0-15.68768-2.00704-18.1248-6.0416-1.59744-4.85376 0-11.30496 4.85376-19.3536 16.11776-24.9856 32.62464-60.49792 49.62304-106.45504 3.19488-8.11008 8.45824-10.89536 15.68768-8.45824 7.2704 4.03456 9.70752 10.07616 7.2704 18.1248zM225.46432 611.7376h494.67392c32.41984 0 32.48128 45.48608 0 45.48608H225.46432c-32.41984 0-32.50176-45.48608 0-45.48608zM225.46432 775.2704h494.67392c32.41984 0 32.48128 45.48608 0 45.48608H225.46432c-32.41984-0.02048-32.50176-45.48608 0-45.48608z" fill="#595757" /></svg>