<?xml version="1.0" standalone="no"?><!DOCTYPE svg PUBLIC "-//W3C//DTD SVG 1.1//EN" "http://www.w3.org/Graphics/SVG/1.1/DTD/svg11.dtd"><svg class="icon" width="200px" height="200.00px" viewBox="0 0 1024 1024" version="1.1" xmlns="http://www.w3.org/2000/svg"><path d="M531.340062 496.59958m-448.198261 0a448.198261 448.198261 0 1 0 896.396522 0 448.198261 448.198261 0 1 0-896.396522 0Z" fill="#FD5E5E" /><path d="M750.629759 338.092935c11.153792-17.60048 8.288598-27.526332 2.046568-41.545318l-37.656841-84.011592c-12.177076-27.117018-44.001199-39.294094-71.118217-27.117018L224.252623 373.498551c-27.117018 12.177076-39.294094 44.001199-27.117018 71.118217l37.65684 84.011592c6.242031 13.916658 12.791046 24.865794 33.359049 26.298391 13.916658 0.204657 47.173379 3.990806 60.066753 32.64275 14.632957 32.745078 0.102328 52.08514-14.223643 65.2855l-1.227941 1.534926c-11.767763 17.498151-6.139702 35.303288-2.967522 42.261617l37.65684 84.011592c12.177076 27.117018 44.001199 39.294094 71.118217 27.117018l419.955631-188.079544c27.117018-12.177076 39.294094-44.001199 27.117018-71.118218L827.887679 464.5708c-8.18627-18.21445-16.270211-22.716898-33.052064-26.400719-35.610273-1.739582-50.140901-9.721195-60.373738-32.540422-10.539822-22.716898-6.549016-37.759169 16.167882-67.536724zM619.137804 448.812231c3.479165 7.776956 0.102328 16.679524-7.674628 20.158689L555.694214 494.041371l6.242031 13.916658 55.768961-24.968122c7.776956-3.479165 16.884181 0.204657 20.158689 7.674628l6.242031 13.916658c3.479165 7.776956 0.204657 16.986509-7.5723 20.465674l-55.768961 24.968123 18.726091 41.852303c3.479165 7.776956 0.102328 16.679524-7.674627 20.158689l-13.916659 6.24203c-7.776956 3.479165-16.679524 0.102328-20.158689-7.674627l-18.726091-41.852304-55.768962 24.968123c-7.776956 3.479165-16.884181-0.204657-20.363346-7.981613l-6.24203-13.916659c-3.479165-7.776956-0.102328-16.679524 7.674628-20.158689l55.768961-24.968122-6.24203-13.916658-55.768962 24.968122c-7.776956 3.479165-16.884181-0.204657-20.158689-7.674628l-6.242031-13.916658c-3.479165-7.776956-0.102328-16.679524 7.674628-20.158689l36.224243-16.270211-68.866993-29.368242c-7.265314-3.172179-11.051464-11.767763-8.697911-19.340062l4.502448-13.609673c2.455881-7.572299 12.074748-11.870091 19.340062-8.697912l86.672129 36.633557 30.391526-89.025682c2.455881-7.572299 12.074748-11.870091 19.340062-8.697912l13.405017 5.525732c7.265314 3.172179 11.051464 11.767763 8.697911 19.340062l-24.354152 70.811232 36.735885-16.474867c7.776956-3.479165 16.884181 0.204657 20.158689 7.674628-0.102328 0.102328 6.242031 14.325972 6.242031 14.325971z" fill="#FFFFFF" /></svg>