<?xml version="1.0" standalone="no"?><!DOCTYPE svg PUBLIC "-//W3C//DTD SVG 1.1//EN" "http://www.w3.org/Graphics/SVG/1.1/DTD/svg11.dtd"><svg class="icon" width="200px" height="200.00px" viewBox="0 0 1024 1024" version="1.1" xmlns="http://www.w3.org/2000/svg"><path d="M668.1 824.9L255.9 905c-25.5 5-50.4-11.9-55.4-37.4L104 370.7c-5-25.5 11.9-50.4 37.4-55.4l412.2-80.1c25.5-5 50.4 11.9 55.4 37.4l96.5 496.9c4.9 25.5-11.9 50.4-37.4 55.4z" fill="#EB5E47" /><path d="M401.5 553.6c-108.2 21-211.3-6.2-274.4-63.9l74.2 381.7c4.5 23.3 27.3 38.7 50.7 34.2L672 824c23.3-4.5 38.7-27.3 34.2-50.7L632 391.7c-36.9 77.1-122.3 140.9-230.5 161.9z" fill="#D64E35" /><path d="M340.419525 559.753095a61.1 61.1 0 1 0 119.957283-23.304297 61.1 61.1 0 1 0-119.957283 23.304297Z" fill="#FFE12B" /><path d="M347.3 829.2l412.2 80.1c25.5 5 50.4-11.9 55.4-37.4L911.4 375c5-25.5-11.9-50.4-37.4-55.4l-412.2-80.1c-25.5-5-50.4 11.9-55.4 37.4l-96.5 496.9c-4.9 25.5 11.9 50.4 37.4 55.4z" fill="#EB5E47" /><path d="M613.8 557.9c108.2 21 211.3-6.2 274.4-63.9L814 875.7c-4.5 23.3-27.3 38.7-50.7 34.2l-420-81.6c-23.3-4.5-38.7-27.3-34.2-50.7L383.3 396c36.9 77.1 122.4 140.9 230.5 161.9z" fill="#D64E35" /><path d="M603.270939 612.448646a61.1 61.1 0 1 0 23.304297-119.957283 61.1 61.1 0 1 0-23.304297 119.957283Z" fill="#FFE12B" /><path d="M740.6 857.2H273.2c-26 0-47.2-21.3-47.2-47.2V248.3c0-26 21.3-47.2 47.2-47.2h467.4c26 0 47.2 21.3 47.2 47.2V810c0 26-21.2 47.2-47.2 47.2z" fill="#EB5E47" /><path d="M506.9 510.8c-120.4 0-225.3-50.6-281-125.6V810c0 26 21.3 47.2 47.2 47.2h467.4c26 0 47.2-21.3 47.2-47.2V385.2c-55.5 75-160.4 125.6-280.8 125.6z" fill="#D64E35" /><path d="M506.9 504.6m-66.7 0a66.7 66.7 0 1 0 133.4 0 66.7 66.7 0 1 0-133.4 0Z" fill="#FFE12B" /></svg>