<?xml version="1.0" standalone="no"?><!DOCTYPE svg PUBLIC "-//W3C//DTD SVG 1.1//EN" "http://www.w3.org/Graphics/SVG/1.1/DTD/svg11.dtd"><svg class="icon" width="200px" height="103.70px" viewBox="0 0 1975 1024" version="1.1" xmlns="http://www.w3.org/2000/svg"><path d="M1969.694118 734.870588v216.847059c0 39.755294-32.527059 72.282353-72.282353 72.282353H72.282353c-39.755294 0-72.282353-32.527059-72.282353-72.282353V733.665882c27.708235-6.023529 48.188235-30.117647 48.188235-59.030588s-20.48-53.007059-48.188235-59.030588V72.282353c0-39.755294 32.527059-72.282353 72.282353-72.282353h1825.129412c39.755294 0 72.282353 32.527059 72.282353 72.282353v542.117647c-30.117647 3.614118-54.211765 28.912941-54.211765 60.235294s24.094118 56.621176 54.211765 60.235294z" fill="#FF9549" /><path d="M1770.917647 192.752941m-120.470588 0a120.470588 120.470588 0 1 0 240.941176 0 120.470588 120.470588 0 1 0-240.941176 0Z" fill="#FFFFFF" /><path d="M1751.642353 238.531765c-2.409412 0-4.818824-1.204706-7.228235-2.409412l-31.322353-33.731765c-2.409412-3.614118-2.409412-9.637647 1.204706-13.251764 3.614118-3.614118 9.637647-3.614118 13.251764 0l24.094118 27.708235 71.077647-61.44c3.614118-3.614118 9.637647-2.409412 13.251765 1.204706 3.614118 3.614118 2.409412 9.637647-1.204706 13.251764l-78.305883 67.46353c-1.204706 1.204706-3.614118 1.204706-4.818823 1.204706z" fill="#FF9549" /><path d="M1855.247059 680.658824h-12.047059v-12.047059h12.047059v12.047059z m-60.235294 0h-48.188236v-12.047059h48.188236v12.047059z m-96.376471 0h-48.188235v-12.047059h48.188235v12.047059z m-96.37647 0h-48.188236v-12.047059h48.188236v12.047059z m-96.376471 0h-48.188235v-12.047059h48.188235v12.047059z m-96.376471 0h-48.188235v-12.047059h48.188235v12.047059z m-96.37647 0h-48.188236v-12.047059h48.188236v12.047059z m-96.376471 0h-48.188235v-12.047059h48.188235v12.047059z m-96.37647 0h-48.188236v-12.047059h48.188236v12.047059z m-96.376471 0h-48.188235v-12.047059h48.188235v12.047059z m-96.376471 0h-48.188235v-12.047059h48.188235v12.047059z m-96.37647 0h-48.188235v-12.047059h48.188235v12.047059z m-96.376471 0h-48.188235v-12.047059h48.188235v12.047059z m-96.37647 0h-48.188236v-12.047059h48.188236v12.047059z m-96.376471 0h-48.188235v-12.047059h48.188235v12.047059z m-96.376471 0h-48.188235v-12.047059h48.188235v12.047059z m-96.37647 0h-48.188235v-12.047059h48.188235v12.047059z m-96.376471 0h-48.188235v-12.047059h48.188235v12.047059z m-96.37647 0H108.423529v-12.047059h48.188236v12.047059z" fill="#FFE5E5" /></svg>