<?xml version="1.0" standalone="no"?><!DOCTYPE svg PUBLIC "-//W3C//DTD SVG 1.1//EN" "http://www.w3.org/Graphics/SVG/1.1/DTD/svg11.dtd"><svg class="icon" width="200px" height="200.00px" viewBox="0 0 1024 1024" version="1.1" xmlns="http://www.w3.org/2000/svg"><path d="M259.52 260.736l-11.392 73.28-64.064 36.8a38.848 38.848 0 0 0-21.248 36.16c0 4.032 0.64 8 2.176 12.672l23.616 70.144-39.552 62.72a41.152 41.152 0 0 0-6.464 22.272c0 11.968 4.288 22.08 12.928 30.08l53.376 50.944-6.208 73.92a37.76 37.76 0 0 0 12.544 33.152 36.48 36.48 0 0 0 17.28 10.176l71.168 20.48 28.544 68.096c3.712 7.296 8.896 13.44 15.616 18.368a40.128 40.128 0 0 0 30.976 6.08l73.088-14.912 57.088 46.976c17.344 13.824 34.88 13.824 52.416 0h0.256l56.832-46.976 72.704 14.912a41.152 41.152 0 0 0 31.36-6.08c2.624-2.176 5.696-4.928 8.896-8.256a51.584 51.584 0 0 0 6.336-10.112l29.184-68.096 70.912-20.48a35.712 35.712 0 0 0 11.968-5.888 46.592 46.592 0 0 0 13.184-14.72 37.76 37.76 0 0 0 4.544-22.656l-5.888-73.92 53.44-50.944a42.24 42.24 0 0 0 12.928-30.08 45.632 45.632 0 0 0-6.848-22.336l-39.104-62.656 23.552-70.144c6.656-21.824 0.384-38.144-19.072-48.896l-64-36.8-12.032-73.28a35.904 35.904 0 0 0-18.944-28.224 35.008 35.008 0 0 0-20.224-6.464L697.6 223.232l-44.48-59.2a38.912 38.912 0 0 0-14.72-12.544 40 40 0 0 0-36.16-0.256l-66.88 31.808-67.008-31.808a40 40 0 0 0-36.16 0.256 41.216 41.216 0 0 0-14.976 12.544l-44.224 59.2-73.92 2.816c-22.016 0.896-35.328 12.224-39.552 34.688z" fill="#FED428" /><path d="M788.288 219.584v0.256a47.872 47.872 0 0 0-25.344-37.376l1.152 0.64a45.184 45.184 0 0 0-26.688-8.512h-0.64l-67.136-2.56-41.024-54.592 0.256 0.256a53.12 53.12 0 0 0-64.512-17.792 11.072 11.072 0 0 0-4.224 2.176l-59.136 28.16-61.632-29.44a53.76 53.76 0 0 0-46.656 0.384h-0.32a53.76 53.76 0 0 0-19.072 16.256h-0.32l-40.512 54.592-68.16 2.56c-28.416 0.832-45.632 15.872-51.072 44.736-0.384 0-0.384 0 0 0.256l-10.56 67.52-59.136 33.92 0.256-0.256a50.88 50.88 0 0 0-27.648 46.976c0 5.184 1.024 10.368 2.816 16.256v0.256L140.8 449.152l-31.616 49.536h29.44l26.112-41.344a15.04 15.04 0 0 0 1.792-5.248 12.032 12.032 0 0 0-0.64-5.568l-23.552-70.144v0.256a32.448 32.448 0 0 1-1.536-8.896c0-11.392 4.928-19.904 14.976-25.472l64.192-36.736c1.472-0.896 3.008-2.24 3.904-3.712s1.92-3.456 2.176-5.184l11.392-73.408v0.64c2.624-15.936 12.224-24.192 27.904-24.832L339.2 196.224a10.496 10.496 0 0 0 5.184-1.28 10.496 10.496 0 0 0 4.032-3.584l44.16-59.072v-0.192a32.128 32.128 0 0 1 10.816-8.832 28.864 28.864 0 0 1 25.728 0l-0.384-0.384 67.008 32.064a9.984 9.984 0 0 0 5.184 1.152 10.496 10.496 0 0 0 5.248-1.152l65.92-31.424c0.256-0.256 0.64-0.256 0.896-0.256a28.864 28.864 0 0 1 35.968 8.512v0.384l44.416 59.328a12.224 12.224 0 0 0 4.224 3.584c1.536 1.024 3.456 1.28 5.248 1.28l73.664 2.816h0.256c4.544 0 9.344 1.472 13.184 4.288 0.384 0.256 0.896 0.256 1.344 0.64a25.92 25.92 0 0 1 12.8 19.264v0.256l12.032 73.344a15.36 15.36 0 0 0 1.792 4.928c0.896 1.472 2.56 2.816 4.032 3.712l64.064 36.736h0.256c13.568 7.744 17.856 19.072 13.184 34.368v-0.32l-23.616 70.208a10.368 10.368 0 0 0-0.256 5.568c0 1.792 0.64 3.712 1.536 5.248l25.984 41.344h29.184l-31.36-49.536 21.888-64.896V384c8.896-27.968 0.64-49.088-24.512-63.168v0.256l-59.008-33.92-11.008-67.584z"  /><path d="M125.184 519.936l13.44-21.248h-29.44l-4.992 8a55.36 55.36 0 0 0-8.192 28.928c0 15.616 5.44 28.416 16.832 38.912l49.152 46.912-5.888 67.84v0.256a48.192 48.192 0 0 0 16.512 43.008 46.656 46.656 0 0 0 22.464 13.184h-0.384l65.728 18.752 25.984 62.848a58.624 58.624 0 0 0 20.608 23.936 50.496 50.496 0 0 0 39.936 7.616l67.136-13.824 52.8 43.264v0.384c22.08 17.216 44.16 17.536 65.984 1.216 0.896-0.32 1.536-0.96 2.56-1.536l52.096-43.264 66.88 13.824c13.696 3.072 27.264 0.64 40.512-7.616 0.256-0.384 0.64-0.384 0.896-0.64 3.392-2.752 6.656-5.824 10.112-9.472 0.256-0.384 0.256-0.384 0.64-0.64a52.288 52.288 0 0 0 8.256-13.184l26.624-62.848 65.344-18.752c0.384-0.384 0.384-0.384 0.64-0.384a52.032 52.032 0 0 0 16-7.872l-0.896 0.576a61.248 61.248 0 0 0 16.896-18.688l0.256-0.384a53.312 53.312 0 0 0 5.824-29.44l-5.184-68.032 49.152-46.912a52.608 52.608 0 0 0 16.576-38.656v-0.64a58.048 58.048 0 0 0-8.64-28.544l-4.928-8h-29.184l13.184 21.248V519.68c3.2 4.928 4.736 10.112 4.992 15.936v0.256a28.544 28.544 0 0 1-8.896 20.8l-53.44 51.008a9.92 9.92 0 0 0-3.072 4.544 7.296 7.296 0 0 0-0.896 5.184l5.824 73.984v0.256a27.648 27.648 0 0 1-3.072 15.744v0.256a44.672 44.672 0 0 1-9.472 10.112c-0.384 0.256-0.384 0.64-0.64 0.896a54.016 54.016 0 0 1-7.744 3.456h-0.256l-70.592 20.544a8.192 8.192 0 0 0-4.672 2.368 11.712 11.712 0 0 0-3.008 4.288l-29.056 68.16c-1.344 2.112-2.816 4.544-4.928 7.296a86.656 86.656 0 0 1-5.888 5.504c-7.104 4.544-14.72 6.208-22.464 4.544l-72.704-14.976a17.984 17.984 0 0 0-5.248 0 11.2 11.2 0 0 0-4.736 2.432l-56 46.016-1.152 0.896c-12.288 9.92-24.64 9.92-36.8 0h-0.384l-56.704-46.784a13.056 13.056 0 0 0-4.928-2.432 19.392 19.392 0 0 0-5.44 0l-73.088 14.976a29.632 29.632 0 0 1-21.824-4.16l0.64 0.256a40.896 40.896 0 0 1-11.904-14.08l-28.16-67.328c-1.024-1.728-1.92-3.328-3.2-4.544a9.472 9.472 0 0 0-4.544-2.368l-71.168-20.544h-0.32a23.808 23.808 0 0 1-11.712-6.848c-0.384-0.256-0.384-0.256-0.384-0.512a25.792 25.792 0 0 1-8.896-22.656v-0.384l6.208-73.856a11.072 11.072 0 0 0-0.64-5.568 18.304 18.304 0 0 0-2.944-4.672l-53.76-51.008a28.8 28.8 0 0 1-8.896-21.056c0-5.824 1.472-11.008 4.672-15.936v0.256z"  /><path d="M291.136 305.28a12.032 12.032 0 0 0 8.512 3.264h187.776v31.552c-53.248 0.64-106.048 0.64-158.208 0.384-1.024 0-1.664 0-2.56 0.256-24.256 3.968-35.968 19.648-35.52 46.976v77.632c-1.536 16.512 3.648 28.8 15.616 36.544 9.472 6.912 23.936 10.048 43.904 9.536H487.424v33.984H286.784a11.456 11.456 0 0 0-8.64 3.648 11.52 11.52 0 0 0-3.648 8.64c0 3.328 1.28 6.4 3.712 8.896a11.712 11.712 0 0 0 8.576 3.264h434.688a13.12 13.12 0 0 0 8.896-3.328 13.76 13.76 0 0 0 3.392-8.896v-34.24a12.16 12.16 0 0 0-12.288-12.352 10.816 10.816 0 0 0-8.512 3.712 10.816 10.816 0 0 0-3.776 8.64v22.08H512v-34.048h133.504c41.984-3.904 62.528-23.36 60.992-58.688v-60.672c1.152-17.536-2.752-30.72-12.032-38.976-8.256-8.896-21.504-13.568-39.488-13.184H512v-31.36h185.6c3.328 0 6.4-1.216 8.896-3.328a13.888 13.888 0 0 0 3.328-9.024c0-3.328-1.216-6.4-3.328-8.512a12.224 12.224 0 0 0-8.896-3.648H512v-21.504a12.096 12.096 0 0 0-12.288-12.288 10.944 10.944 0 0 0-8.64 3.712 11.328 11.328 0 0 0-3.712 8.576v21.568H299.648a10.752 10.752 0 0 0-8.512 3.712 10.688 10.688 0 0 0-3.712 8.512c0 3.392 1.152 6.336 3.712 8.96z m390.72 85.824v21.44H512v-48.256h143.232a33.28 33.28 0 0 1 22.08 5.888c3.712 4.672 5.184 11.008 4.544 19.968v0.96z m0 45.952v16c-0.256 20.48-13.184 31.552-38.592 33.664H512v-49.664h169.856zM487.36 364.672v47.872H315.648v-25.088c-0.256-12.608 4.544-20.096 14.72-22.528 51.84 0.32 104 0.32 156.992-0.256z m0 72.384v49.664H350.272c-13.184 0.384-22.976-1.28-29.44-4.928-3.968-3.264-5.44-8.256-5.184-14.656V437.056h171.712zM645.76 603.392a11.2 11.2 0 0 0 0.256 9.472l29.12 64.128a11.52 11.52 0 0 0 6.72 6.464c3.2 0.896 6.272 0.896 9.472-0.256a12.544 12.544 0 0 0 6.528-7.104 14.464 14.464 0 0 0-0.256-9.28l-29.184-64.064a10.816 10.816 0 0 0-7.04-6.528 11.072 11.072 0 0 0-9.216 0.384 9.28 9.28 0 0 0-6.4 6.784zM503.104 611.008v41.472c0 3.328 1.152 6.528 3.712 8.896a11.968 11.968 0 0 0 8.512 3.456c3.392 0 6.464-1.28 8.896-3.456a13.248 13.248 0 0 0 3.456-8.896v-41.472c0-3.328-1.28-6.4-3.456-8.512a11.776 11.776 0 0 0-8.896-3.712 10.752 10.752 0 0 0-8.512 3.712 10.688 10.688 0 0 0-3.712 8.512z"  /><path d="M403.008 605.76a11.52 11.52 0 0 0-3.648 8.64v59.328c0.64 34.88 18.112 52.992 52.544 54.272h159.488c3.392 0 6.464-1.28 8.896-3.456a13.44 13.44 0 0 0 3.392-8.896 12.352 12.352 0 0 0-3.392-8.64 12.8 12.8 0 0 0-8.896-3.648H452.096c-18.368-0.96-27.968-11.072-28.16-30.08V614.4a12.352 12.352 0 0 0-3.392-8.64 12.544 12.544 0 0 0-8.896-3.648 11.456 11.456 0 0 0-8.64 3.648zM330.048 599.04a11.904 11.904 0 0 0-9.472 1.536 13.632 13.632 0 0 0-5.568 7.744l-15.68 63.168a10.944 10.944 0 0 0 1.536 9.152c1.92 2.816 4.352 4.736 7.808 5.632a11.072 11.072 0 0 0 9.152-1.536 13.952 13.952 0 0 0 5.568-7.296l15.616-63.232a12.16 12.16 0 0 0-1.6-9.6 13.248 13.248 0 0 0-7.36-5.568z"  /></svg>