<?xml version="1.0" standalone="no"?><!DOCTYPE svg PUBLIC "-//W3C//DTD SVG 1.1//EN" "http://www.w3.org/Graphics/SVG/1.1/DTD/svg11.dtd"><svg class="icon" width="200px" height="200.00px" viewBox="0 0 1024 1024" version="1.1" xmlns="http://www.w3.org/2000/svg"><path d="M561.152 759.808l-98.19022222-1.13777778s-47.90044445 18.31822222-48.128 40.96c-0.22755555 22.64177778 17.74933333 41.18755555 40.27733333 41.75644445v0.11377778l126.40711111 1.25155555-20.36622222-82.944z m0 0" fill="#FFC89F" /><path d="M707.12888889 967.11111111h136.41955556L830.57777778 872.90311111c-0.34133333-2.38933333-0.79644445-4.66488889-1.36533333-6.94044444-4.66488889-22.75555555-21.84533333-42.09777778-46.08-48.46933334l-0.5688889-0.11377778c-1.47911111-0.45511111-3.072-0.79644445-4.5511111-1.13777777l-177.7208889-46.30755556c-10.80888889-4.43733333-26.39644445-7.85066667-39.13955555-10.24v27.98933333c-3.98222222 22.98311111-25.03111111 40.73244445-49.152 40.73244445s-45.056-17.74933333-49.152-40.73244445v-29.1271111c-13.312 2.16177778-32.65422222 5.91644445-45.28355555 11.15022222l-173.39733334 46.87644444c-0.79644445 0.22755555-1.70666667 0.45511111-2.50311111 0.68266667l-0.79644445 0.22755555c-24.00711111 6.25777778-41.18755555 25.48622222-45.96622222 48.46933334-0.56888889 2.27555555-1.024 4.66488889-1.36533333 6.94044444L180.33777778 967.11111111h136.41955555l5.57511112-40.39111111 5.23377777-1.36533333c-1.024 13.19822222-2.048 27.07911111-3.072 41.75644444h370.91555556c-1.13777778-15.01866667-2.27555555-29.46844445-3.29955556-42.78044444l9.216 2.38933333 5.80266667 40.39111111z m0 0" fill="#409EFF" /><path d="M470.58488889 659.22844445v126.4071111h0.11377778c0.34133333 22.528 18.77333333 40.73244445 41.41511111 40.73244445s40.96-18.20444445 41.41511111-40.73244445h0.11377778V659.22844445h-83.05777778z m0 0" fill="#FFC89F" /><path d="M470.58488889 726.69866667c13.312 0.68266667 26.96533333 1.024 41.41511111 1.024 14.22222222 0 27.98933333-0.56888889 41.41511111-1.59288889v-66.90133333h-82.944v67.47022222z m0 0" fill="#CC9F81" /><path d="M825.79911111 561.60711111c0 59.84711111-130.16177778 152.00711111-313.79911111 152.00711111-231.87911111 0-313.79911111-92.16-313.79911111-152.00711111V299.69066667c0-93.29777778 122.31111111-216.74666667 313.79911111-216.74666667 214.81244445 0 313.79911111 118.89777778 313.79911111 216.74666667v261.91644444z m0 0" fill="#FFC89F" /><path d="M512 69.40444445c-191.60177778 0-313.79911111 128.56888889-313.79911111 225.62133333v102.74133333c393.10222222 50.97244445 475.02222222-179.88266667 475.02222222-179.88266666 10.12622222 197.85955555 152.68977778 191.14666667 152.68977778 191.14666666V295.02577778C825.79911111 193.30844445 726.81244445 69.40444445 512 69.40444445z m0 0"  /><path d="M644.096 480.82488889c0 13.08444445-10.69511111 23.66577778-23.66577778 23.66577778-13.08444445 0-23.66577778-10.69511111-23.66577777-23.66577778 0-13.19822222 10.69511111-23.66577778 23.66577777-23.66577778 13.08444445-0.11377778 23.66577778 10.58133333 23.66577778 23.66577778z m0 0" fill="#390000" /><path d="M624.86755555 473.99822222c0 5.57511111-4.55111111 10.24-10.24 10.24-5.57511111 0-10.24-4.55111111-10.24-10.24 0-5.57511111 4.55111111-10.24 10.24-10.24 5.68888889 0.11377778 10.24 4.66488889 10.24 10.24z m0 0" fill="#FFFFFF" /><path d="M427.46311111 480.82488889c0 13.08444445-10.69511111 23.66577778-23.66577778 23.66577778-13.08444445 0-23.66577778-10.69511111-23.66577778-23.66577778 0-13.19822222 10.69511111-23.66577778 23.66577778-23.66577778 12.97066667-0.11377778 23.66577778 10.58133333 23.66577778 23.66577778z m0 0" fill="#390000" /><path d="M408.23466667 473.99822222c0 5.57511111-4.55111111 10.24-10.24 10.24-5.57511111 0-10.24-4.55111111-10.24-10.24 0-5.57511111 4.55111111-10.24 10.24-10.24 5.57511111 0.11377778 10.24 4.66488889 10.24 10.24z m0 0" fill="#FFFFFF" /><path d="M512 551.25333333c-6.25777778 0-11.60533333-5.12-11.60533333-11.49155555 0-1.36533333 1.13777778-2.50311111 2.50311111-2.50311111 1.36533333 0 2.50311111 1.13777778 2.50311111 2.50311111 0 3.52711111 2.84444445 6.37155555 6.37155556 6.37155555 3.52711111 0 6.37155555-2.84444445 6.37155555-6.37155555 0-1.36533333 1.13777778-2.50311111 2.50311111-2.50311111s2.50311111 1.13777778 2.50311111 2.50311111c0.34133333 6.37155555-4.77866667 11.49155555-11.15022222 11.49155555z m0 104.22044445c-71.45244445 0-87.04-48.24177778-87.72266667-50.28977778-0.79644445-2.73066667 0.68266667-5.57511111 3.41333334-6.37155555 2.73066667-0.79644445 5.57511111 0.68266667 6.37155555 3.41333333 0.56888889 1.70666667 14.336 43.008 77.824 43.008 63.60177778 0 77.25511111-41.30133333 77.824-43.008 0.79644445-2.61688889 3.64088889-4.20977778 6.37155556-3.29955556 2.73066667 0.79644445 4.20977778 3.64088889 3.41333333 6.37155556-0.45511111 1.93422222-16.04266667 50.176-87.49511111 50.176z m0 0"  /><path d="M830.80533333 400.61155555c-6.144 0-11.264-5.00622222-11.264-11.37777777 0-159.06133333-137.89866667-288.42666667-307.54133333-288.42666667-169.52888889 0-307.54133333 129.36533333-307.54133333 288.42666667 0 6.144-5.00622222 11.37777778-11.264 11.37777777-6.144 0-11.264-5.00622222-11.264-11.37777777 0-171.46311111 148.02488889-310.95466667 330.06933333-310.95466667 182.04444445 0 330.06933333 139.49155555 330.06933333 310.95466667 0 6.37155555-5.00622222 11.37777778-11.264 11.37777777z m0 0M867.10044445 397.53955555h-0.68266667L847.64444445 558.19377778c0.22755555 0 0.45511111 0.11377778 0.68266666 0.11377777 19.11466667 2.27555555 37.888-24.576 43.80444444-76.34488888 5.68888889-48.81066667-5.91644445-82.26133333-25.0311111-84.42311112z m0 0" fill="#C0C4CC" /><path d="M176.35555555 558.08c2.048 17.97688889 18.432 30.94755555 36.4088889 28.78577778 17.97688889-2.048 30.94755555-18.432 28.89955555-36.40888889L223.00444445 390.144c-2.048-17.97688889-18.432-30.94755555-36.4088889-28.89955555-17.97688889 2.048-30.94755555 18.432-28.89955555 36.40888888l18.65955555 160.42666667z m0 0" fill="#303133" /><path d="M157.01333333 397.53955555h0.68266667l18.77333333 160.65422223c-0.22755555 0-0.45511111 0.11377778-0.68266666 0.11377777-19.11466667 2.27555555-37.888-24.576-43.91822222-76.34488888-5.68888889-48.81066667 6.144-82.26133333 25.14488888-84.42311112z m0 0M632.832 685.28355555c-2.27555555 0.45511111-3.75466667 2.50311111-3.41333333 4.77866667 0.34133333 2.048 2.048 3.52711111 4.20977778 3.52711111h0.68266666C714.06933333 679.48088889 778.92266667 633.17333333 824.88888889 563.2c0.11377778-0.11377778 4.43733333-0.22755555 4.55111111-0.34133333l-10.35377778-6.03022222c-42.78044445 65.99111111-105.472 114.23288889-186.25422222 128.4551111z" fill="#C0C4CC" /><path d="M634.19733333 690.40355555c1.25155555 15.01866667-15.92888889 28.672-38.11555555 30.37866667-22.30044445 1.82044445-41.41511111-8.87466667-42.55288889-23.89333333-1.25155555-15.01866667 15.92888889-28.672 38.11555556-30.37866667s41.30133333 8.98844445 42.55288888 23.89333333z m0 0M683.46311111 145.29422222c-13.76711111 10.80888889-36.97777778 8.87466667-54.15822222-0.79644444-70.76977778-40.61866667-164.52266667-40.61866667-235.29244444 0-17.06666667 9.78488889-40.27733333 11.60533333-54.15822223 0.79644444-13.76711111-10.80888889-7.96444445-34.36088889 15.81511111-48.128 93.75288889-53.81688889 218.112-53.81688889 311.97866667 0 23.77955555 13.76711111 29.46844445 37.54666667 15.81511111 48.128zM847.64444445 558.08c-2.048 17.97688889-18.432 30.94755555-36.4088889 28.78577778-17.97688889-2.048-30.94755555-18.432-28.89955555-36.40888889L800.99555555 390.144c2.048-17.97688889 18.432-30.94755555 36.4088889-28.89955555 17.97688889 2.048 30.94755555 18.432 28.89955555 36.40888888l-18.65955555 160.42666667z m0 0" fill="#303133" /></svg>