<?xml version="1.0" standalone="no"?><!DOCTYPE svg PUBLIC "-//W3C//DTD SVG 1.1//EN" "http://www.w3.org/Graphics/SVG/1.1/DTD/svg11.dtd"><svg class="icon" width="200px" height="200.00px" viewBox="0 0 1024 1024" version="1.1" xmlns="http://www.w3.org/2000/svg"><path d="M649.6 822.4c-9.6 12.8-9.6 9.6-16 22.4 89.6 9.6 150.4 28.8 150.4 51.2 0 32-121.6 67.2-268.8 67.2S243.2 928 243.2 896c0-22.4 60.8-41.6 150.4-51.2-9.6-12.8-9.6-9.6-19.2-22.4-99.2 12.8-172.8 35.2-172.8 73.6 0 54.4 137.6 96 310.4 96s310.4-44.8 310.4-96c0-38.4-73.6-64-172.8-73.6z" fill="#00FA9A" /><path d="M793.6 326.4c0 163.2-281.6 547.2-281.6 547.2s-310.4-384-310.4-547.2 153.6-284.8 310.4-284.8 281.6 121.6 281.6 284.8z" fill="#98FB98" /><path d="M512 880l-16-22.4c-12.8-16-294.4-371.2-294.4-528C201.6 166.4 339.2 32 512 32s310.4 134.4 310.4 297.6c0 156.8-281.6 515.2-294.4 528l-16 22.4z m0-806.4c-147.2 0-268.8 115.2-268.8 256 0 124.8 208 403.2 268.8 483.2 60.8-80 268.8-358.4 268.8-483.2 0-140.8-121.6-256-268.8-256z" fill="#00FA9A" /><path d="M384 342.4c0 76.8 44.8 140.8 140.8 140.8s140.8-64 140.8-144-51.2-144-144-144S384 265.6 384 342.4z" fill="#FFFFFF" /><path d="M512 496c-92.8 0-169.6-76.8-169.6-169.6s76.8-169.6 169.6-169.6 169.6 76.8 169.6 169.6-76.8 169.6-169.6 169.6z m0-294.4c-70.4 0-124.8 57.6-124.8 124.8 0 70.4 57.6 124.8 124.8 124.8s124.8-57.6 124.8-124.8c0-67.2-54.4-124.8-124.8-124.8z" fill="#00FA9A" /></svg>